# Blender 3.3.0
# www.blender.org
mtllib asphalt.mtl
o Cube.001
v -51.377953 -0.089156 -10.251040
v -51.377953 0.089156 -10.251040
v -51.377953 -0.089156 -39.702919
v -51.377953 0.089156 -39.702919
v 109.110374 -0.089156 -10.251040
v 109.110374 0.089156 -10.251040
v 109.110374 -0.089156 -39.702919
v 109.110374 0.089156 -39.702919
v -51.377953 -0.089156 -24.976980
v -51.377953 0.089156 -24.976980
v 109.110374 -0.089156 -24.976980
v 109.110374 0.089156 -24.976980
v -51.377953 -0.089156 -4.387611
v -51.377953 0.089156 -4.387611
v 109.110374 0.089156 -4.387611
v 109.110374 -0.089156 -4.387611
v 109.110374 0.640240 -10.251040
v -51.377953 0.640240 -10.251040
v 109.110374 0.640240 -4.387611
v -51.377953 0.640240 -4.387611
v -51.377953 0.089156 -44.828354
v -51.377953 -0.089156 -44.828354
v 109.110374 -0.089156 -44.828354
v 109.110374 0.089156 -44.828354
v -51.377953 0.631579 -39.702919
v 109.110374 0.631579 -39.702919
v -51.377953 0.631579 -44.828354
v 109.110374 0.631579 -44.828354
vn -1.0000 -0.0000 -0.0000
vn 1.0000 -0.0000 -0.0000
vn -0.0000 -1.0000 -0.0000
vn -0.0000 1.0000 -0.0000
vn -0.0000 -0.0000 1.0000
vn -0.0000 -0.0000 -1.0000
vt 0.125000 0.750000
vt 0.375000 0.000000
vt 0.625000 0.000000
vt 0.875000 0.750000
vt 0.125000 0.500000
vt 0.375000 0.250000
vt 0.625000 0.250000
vt 0.875000 0.500000
vt 0.375000 0.750000
vt 0.625000 0.750000
vt 0.375000 0.500000
vt 0.625000 0.500000
vt 0.125000 0.625000
vt 0.375000 0.125000
vt 0.875000 0.625000
vt 0.625000 0.125000
vt 0.375000 0.625000
vt 0.625000 0.625000
vt 0.125000 0.750000
vt 0.375000 1.000000
vt 0.375000 0.000000
vt 0.625000 0.000000
vt 0.625000 1.000000
vt 0.625000 0.750000
vt 0.375000 0.750000
vt 0.625000 0.750000
vt 0.625000 0.000000
vt 0.875000 0.750000
vt 0.625000 0.750000
vt 0.625000 0.000000
vt 0.875000 0.750000
vt 0.625000 1.000000
vt 0.625000 0.250000
vt 0.125000 0.500000
vt 0.375000 0.250000
vt 0.375000 0.500000
vt 0.625000 0.500000
vt 0.625000 0.250000
vt 0.875000 0.500000
vt 0.625000 0.500000
vt 0.875000 0.500000
vt 0.625000 0.250000
vt 0.625000 0.500000
s 0
usemtl Material
f 9/14/1 10/16/1 4/7/1 3/6/1
f 8/12/2 7/11/2 23/36/2 24/37/2
f 11/17/2 12/18/2 6/10/2 5/9/2
f 1/1/3 5/9/3 16/25/3 13/19/3
f 9/13/3 11/17/3 5/9/3 1/1/3
f 12/18/4 10/15/4 2/4/4 6/10/4
f 8/12/4 4/8/4 10/15/4 12/18/4
f 3/5/3 7/11/3 11/17/3 9/13/3
f 7/11/2 8/12/2 12/18/2 11/17/2
f 1/2/1 2/3/1 10/16/1 9/14/1
f 16/25/5 15/24/5 14/23/5 13/20/5
f 2/3/1 14/22/1 20/30/1 18/27/1
f 5/9/2 6/10/2 15/24/2 16/25/2
f 2/3/1 1/2/1 13/21/1 14/22/1
f 17/26/4 18/28/4 20/31/4 19/29/4
f 6/10/6 2/4/6 18/28/6 17/26/6
f 15/24/2 6/10/2 17/26/2 19/29/2
f 14/23/5 15/24/5 19/29/5 20/32/5
f 22/35/6 21/33/6 24/37/6 23/36/6
f 7/11/3 3/5/3 22/34/3 23/36/3
f 21/33/1 4/7/1 25/38/1 27/42/1
f 3/6/1 4/7/1 21/33/1 22/35/1
f 25/39/4 26/40/4 28/43/4 27/41/4
f 8/12/2 24/37/2 28/43/2 26/40/2
f 4/8/5 8/12/5 26/40/5 25/39/5
f 24/37/6 21/33/6 27/42/6 28/43/6
o Plane
v -50.477203 0.440911 -23.984596
v -42.184860 0.440911 -23.984596
v -50.477203 0.440911 -26.087400
v -42.184860 0.440911 -26.087400
v -35.550980 0.440911 -23.984596
v -27.258636 0.440911 -23.984596
v -35.550980 0.440911 -26.087400
v -27.258636 0.440911 -26.087400
v -20.624756 0.440911 -23.984596
v -12.332413 0.440911 -23.984596
v -20.624756 0.440911 -26.087400
v -12.332413 0.440911 -26.087400
v -5.698532 0.440911 -23.984596
v 2.593819 0.440911 -23.984596
v -5.698532 0.440911 -26.087400
v 2.593819 0.440911 -26.087400
v 9.227692 0.440911 -23.984596
v 17.520039 0.440911 -23.984596
v 9.227692 0.440911 -26.087400
v 17.520039 0.440911 -26.087400
v 24.153919 0.440911 -23.984596
v 32.446266 0.440911 -23.984596
v 24.153919 0.440911 -26.087400
v 32.446266 0.440911 -26.087400
v 39.080143 0.440911 -23.984596
v 47.372490 0.440911 -23.984596
v 39.080143 0.440911 -26.087400
v 47.372490 0.440911 -26.087400
v 54.006367 0.440911 -23.984596
v 62.298714 0.440911 -23.984596
v 54.006367 0.440911 -26.087400
v 62.298714 0.440911 -26.087400
v 68.932587 0.440911 -23.984596
v 77.224937 0.440911 -23.984596
v 68.932587 0.440911 -26.087400
v 77.224937 0.440911 -26.087400
v 83.858810 0.440911 -23.984596
v 92.151161 0.440911 -23.984596
v 83.858810 0.440911 -26.087400
v 92.151161 0.440911 -26.087400
v 98.785049 0.440911 -23.984596
v 107.077393 0.440911 -23.984596
v 98.785049 0.440911 -26.087400
v 107.077393 0.440911 -26.087400
vn -0.0000 1.0000 -0.0000
vt 0.000000 0.000000
vt 1.000000 0.000000
vt 0.000000 1.000000
vt 1.000000 1.000000
vt 0.000000 0.000000
vt 1.000000 0.000000
vt 0.000000 1.000000
vt 1.000000 1.000000
vt 0.000000 0.000000
vt 1.000000 0.000000
vt 0.000000 1.000000
vt 1.000000 1.000000
vt 0.000000 0.000000
vt 1.000000 0.000000
vt 0.000000 1.000000
vt 1.000000 1.000000
vt 0.000000 0.000000
vt 1.000000 0.000000
vt 0.000000 1.000000
vt 1.000000 1.000000
vt 0.000000 0.000000
vt 1.000000 0.000000
vt 0.000000 1.000000
vt 1.000000 1.000000
vt 0.000000 0.000000
vt 1.000000 0.000000
vt 0.000000 1.000000
vt 1.000000 1.000000
vt 0.000000 0.000000
vt 1.000000 0.000000
vt 0.000000 1.000000
vt 1.000000 1.000000
vt 0.000000 0.000000
vt 1.000000 0.000000
vt 0.000000 1.000000
vt 1.000000 1.000000
vt 0.000000 0.000000
vt 1.000000 0.000000
vt 0.000000 1.000000
vt 1.000000 1.000000
vt 0.000000 0.000000
vt 1.000000 0.000000
vt 0.000000 1.000000
vt 1.000000 1.000000
s 0
f 29/44/7 30/45/7 32/47/7 31/46/7
f 33/48/7 34/49/7 36/51/7 35/50/7
f 37/52/7 38/53/7 40/55/7 39/54/7
f 41/56/7 42/57/7 44/59/7 43/58/7
f 45/60/7 46/61/7 48/63/7 47/62/7
f 49/64/7 50/65/7 52/67/7 51/66/7
f 53/68/7 54/69/7 56/71/7 55/70/7
f 57/72/7 58/73/7 60/75/7 59/74/7
f 61/76/7 62/77/7 64/79/7 63/78/7
f 65/80/7 66/81/7 68/83/7 67/82/7
f 69/84/7 70/85/7 72/87/7 71/86/7
